<?xml version="1.0" encoding="UTF-8" standalone="no"?>
<svg
   version="1.1"
   width="256"
   height="256"
   viewBox="0 0 256 256"
   xml:space="preserve"
   id="svg4"
   sodipodi:docname="icon.svg"
   inkscape:version="1.3.2 (091e20e, 2023-11-25, custom)"
   inkscape:export-filename="icon.png"
   inkscape:export-xdpi="192"
   inkscape:export-ydpi="192"
   xmlns:inkscape="http://www.inkscape.org/namespaces/inkscape"
   xmlns:sodipodi="http://sodipodi.sourceforge.net/DTD/sodipodi-0.dtd"
   xmlns="http://www.w3.org/2000/svg"
   xmlns:svg="http://www.w3.org/2000/svg"><sodipodi:namedview
   id="namedview4"
   pagecolor="#ffffff"
   bordercolor="#000000"
   borderopacity="0.25"
   inkscape:showpageshadow="2"
   inkscape:pageopacity="0.0"
   inkscape:pagecheckerboard="0"
   inkscape:deskcolor="#d1d1d1"
   inkscape:zoom="4.1289062"
   inkscape:cx="127.75781"
   inkscape:cy="128"
   inkscape:window-width="2160"
   inkscape:window-height="1334"
   inkscape:window-x="-11"
   inkscape:window-y="-11"
   inkscape:window-maximized="1"
   inkscape:current-layer="svg4" />

<defs
   id="defs1">

	
	
	
	
</defs>
<path
   d="m 226.79321,35.802577 c 0.0417,-0.339804 0.0439,-0.677232 -0.004,-1.009908 -0.007,-0.0499 -0.002,-0.09743 -0.011,-0.147327 -0.0725,-0.38733 -0.21525,-0.753273 -0.40194,-1.09783 -0.0198,-0.03802 -0.022,-0.07842 -0.0417,-0.116436 -0.0329,-0.05703 -0.0857,-0.08554 -0.1208,-0.140199 -0.0747,-0.11406 -0.13178,-0.242378 -0.22183,-0.346933 -0.11202,-0.13307 -0.24819,-0.230497 -0.37338,-0.342181 -0.0681,-0.05941 -0.12739,-0.128318 -0.19768,-0.180595 -0.29431,-0.220992 -0.61498,-0.389706 -0.95761,-0.496637 -0.0615,-0.01901 -0.123,-0.02139 -0.1845,-0.03564 -0.28992,-0.07129 -0.58643,-0.09743 -0.88733,-0.08079 -0.10103,0.0048 -0.19548,0.01426 -0.29651,0.02851 -0.0857,0.01426 -0.17351,0.0048 -0.25917,0.02376 L 31.751439,78.092768 c -1.341981,0.325547 -2.356702,1.518426 -2.54559,2.991703 -0.186691,1.473278 0.491987,2.920417 1.702185,3.623788 l 51.665138,30.085751 16.092781,55.50929 c 0.01757,0.0594 0.05491,0.10218 0.07468,0.15921 0.04612,0.13307 0.114211,0.25188 0.175709,0.3802 0.129586,0.27089 0.278939,0.51802 0.463434,0.74139 0.04832,0.0594 0.06589,0.13545 0.118604,0.1901 0.04832,0.0499 0.109818,0.0665 0.160334,0.11406 0.217441,0.20436 0.454646,0.36832 0.713816,0.50614 0.10323,0.0547 0.19328,0.12595 0.29871,0.16634 0.3602,0.14495 0.73797,0.23763 1.13552,0.23763 0.0242,0 0.0483,0 0.0725,0 0.39315,-0.01 0.76653,-0.10456 1.11795,-0.25426 0.09,-0.038 0.16473,-0.10456 0.25038,-0.14971 0.27894,-0.1497 0.53592,-0.3303 0.76654,-0.55842 0.0439,-0.0428 0.10103,-0.057 0.14276,-0.10455 l 26.37617,-29.01168 50.91178,29.64852 c 0.4854,0.28277 1.02351,0.42772 1.56162,0.42772 0.41292,0 0.83023,-0.0832 1.22338,-0.25426 0.9049,-0.3897 1.60335,-1.19763 1.90864,-2.20041 L 226.6812,36.451294 c 0.0308,-0.104555 0.0329,-0.213862 0.0549,-0.320794 0.0242,-0.109307 0.0439,-0.216239 0.0571,-0.327923 z M 199.23759,44.875115 85.344987,108.31872 41.808603,82.964088 Z m -6.84168,11.831368 -82.37913,68.367197 c -0.007,0.005 -0.011,0.0143 -0.0154,0.019 -0.24599,0.20674 -0.45904,0.461 -0.64573,0.74615 -0.0395,0.0594 -0.0769,0.11881 -0.11201,0.18059 -0.0373,0.0665 -0.0857,0.12357 -0.1208,0.19248 -0.11861,0.23762 -0.20427,0.48476 -0.26796,0.73426 -0.002,0.0119 -0.011,0.0214 -0.0132,0.0333 l -7.28754,29.48218 -12.26891,-42.3187 z m -84.18235,100.401477 5.91482,-23.93363 10.36026,6.03331 z m 72.88644,6.97431 -63.03134,-36.706 99.03418,-82.189866 z"
   style="fill:#000000;fill-rule:nonzero;stroke:none;stroke-width:3.285;stroke-linecap:butt;stroke-linejoin:miter;stroke-miterlimit:10;stroke-dasharray:none"
   stroke-linecap="round"
   id="path1" /><path
   d="m 57.495055,224.19674 c -0.834619,0 -1.669239,-0.34218 -2.310578,-1.02417 -1.298053,-1.3806 -1.315624,-3.63567 -0.03954,-5.04003 l 31.390476,-34.52222 c 1.276089,-1.40674 3.362638,-1.421 4.658494,-0.0428 1.298053,1.3806 1.315624,3.63567 0.03954,5.04003 l -31.388279,34.5246 c -0.645732,0.7105 -1.497923,1.06456 -2.350113,1.06456 z"
   style="fill:#000000;fill-rule:nonzero;stroke:none;stroke-width:3.285;stroke-linecap:butt;stroke-linejoin:miter;stroke-miterlimit:10;stroke-dasharray:none"
   stroke-linecap="round"
   id="path2" /><path
   d="m 109.17776,210.20298 c -0.83461,0 -1.66923,-0.34218 -2.31057,-1.02417 -1.29806,-1.3806 -1.31563,-3.63566 -0.0395,-5.04003 l 31.38828,-34.51984 c 1.27829,-1.40437 3.36264,-1.421 4.6585,-0.0428 1.29805,1.3806 1.31562,3.63567 0.0395,5.04003 l -31.38608,34.52222 c -0.64573,0.70812 -1.49793,1.06456 -2.35012,1.06456 z"
   style="fill:#000000;fill-rule:nonzero;stroke:none;stroke-width:4.885;stroke-linecap:butt;stroke-linejoin:miter;stroke-miterlimit:10;stroke-dasharray:none"
   stroke-linecap="round"
   id="path3" /><path
   d="m 47.688277,180.82298 c -0.83462,0 -1.669239,-0.34218 -2.310578,-1.02417 -1.298053,-1.3806 -1.315624,-3.63567 -0.03954,-5.04003 l 22.941052,-25.23107 c 1.27609,-1.40436 3.362638,-1.421 4.658495,-0.0428 1.298053,1.3806 1.315623,3.63567 0.03953,5.04003 L 50.03838,179.75601 c -0.645731,0.7105 -1.497922,1.06694 -2.350112,1.06694 z"
   style="fill:#000000;fill-rule:nonzero;stroke:none;stroke-width:3.285;stroke-linecap:butt;stroke-linejoin:miter;stroke-miterlimit:10;stroke-dasharray:none"
   stroke-linecap="round"
   id="path4" />
</svg>
